<svg width="43" height="11" viewBox="0 0 43 11" fill="none" xmlns="http://www.w3.org/2000/svg">
<path d="M2.58579 0H0V11H9.58579C9.851 11 10.1054 10.8946 10.2929 10.7071L10.7071 10.2929C10.8946 10.1054 11.149 10 11.4142 10H30.5858C30.851 10 31.1054 10.1054 31.2929 10.2929L31.7071 10.7071C31.8946 10.8946 32.149 11 32.4142 11H43V2H40.4142C40.149 2 39.8946 1.89464 39.7071 1.70711L39.2929 1.29289C39.1054 1.10536 38.851 1 38.5858 1H4.41421C4.149 1 3.89464 0.894643 3.70711 0.707107L3.29289 0.292893C3.10536 0.105357 2.851 0 2.58579 0Z" fill="black"/>
</svg>
