<svg width="317" height="160" viewBox="0 0 317 160" fill="none" xmlns="http://www.w3.org/2000/svg">
<path d="M4.99609 5.9H29.7961L43.4961 61.7H38.6961L52.2961 5.9H74.8961L88.6961 61.7H83.8961L97.3961 5.9H121.096L97.3961 76H73.5961L60.5961 24.3H65.5961L52.2961 76H28.4961L4.99609 5.9ZM133.276 5.9H157.076L185.576 76H160.876L144.476 29L127.476 76H103.676L133.276 5.9ZM123.676 49.5H163.876V66.1H123.676V49.5ZM213.459 5.9C222.992 5.9 230.359 8.1 235.559 12.5C240.759 16.8333 243.359 23 243.359 31C243.359 39.4667 240.759 46.0667 235.559 50.8C230.359 55.4667 222.992 57.8 213.459 57.8H202.759V76H179.559V5.9H213.459ZM213.459 40.2C215.992 40.2 217.925 39.4667 219.259 38C220.659 36.4667 221.359 34.3667 221.359 31.7C221.359 29.1 220.659 27.1 219.259 25.7C217.925 24.2333 215.992 23.5 213.459 23.5H202.759V40.2H213.459ZM207.559 49.5H229.959L246.059 76H219.859L207.559 49.5ZM277.02 4.4C282.62 4.4 287.753 5.3 292.42 7.1C297.086 8.9 301.153 11.4333 304.62 14.7C308.086 17.9667 310.753 21.8333 312.62 26.3C314.553 30.7 315.52 35.5333 315.52 40.8C315.52 46.0667 314.553 50.9667 312.62 55.5C310.753 59.9667 308.086 63.8667 304.62 67.2C301.153 70.4667 297.086 73.0333 292.42 74.9C287.753 76.7 282.62 77.6 277.02 77.6C271.42 77.6 266.286 76.7 261.62 74.9C256.953 73.0333 252.886 70.4667 249.42 67.2C245.953 63.8667 243.253 59.9667 241.32 55.5C239.453 51.0333 238.52 46.1333 238.52 40.8C238.52 35.4667 239.453 30.6 241.32 26.2C243.253 21.7333 245.953 17.9 249.42 14.7C252.886 11.4333 256.953 8.9 261.62 7.1C266.286 5.3 271.42 4.4 277.02 4.4ZM277.32 23.7C275.32 23.7 273.386 24.1333 271.52 25C269.72 25.8 268.12 27 266.72 28.6C265.386 30.1333 264.32 31.9333 263.52 34C262.72 36.0667 262.32 38.3667 262.32 40.9C262.32 43.3667 262.72 45.6667 263.52 47.8C264.32 49.9333 265.42 51.8 266.82 53.4C268.22 54.9333 269.82 56.1333 271.62 57C273.42 57.8667 275.32 58.3 277.32 58.3C279.32 58.3 281.186 57.8667 282.92 57C284.653 56.1333 286.186 54.9333 287.52 53.4C288.853 51.8 289.886 49.9333 290.62 47.8C291.353 45.6667 291.72 43.3667 291.72 40.9C291.72 38.3667 291.353 36.0667 290.62 34C289.886 31.9333 288.853 30.1333 287.52 28.6C286.186 27 284.653 25.8 282.92 25C281.186 24.1333 279.32 23.7 277.32 23.7ZM72.1172 85.9H128.517V103.5H95.3172V115.6H126.417V133.2H95.3172V156H72.1172V85.9ZM144.799 85.9H168.599L197.099 156H172.399L155.999 109L138.999 156H115.199L144.799 85.9ZM135.199 129.5H175.399V146.1H135.199V129.5ZM242.329 111.3C239.996 108.967 237.262 107.133 234.129 105.8C230.996 104.4 227.962 103.7 225.029 103.7C222.762 103.7 220.662 104.133 218.729 105C216.862 105.867 215.229 107.067 213.829 108.6C212.429 110.133 211.329 111.967 210.529 114.1C209.796 116.167 209.429 118.433 209.429 120.9C209.429 123.433 209.829 125.767 210.629 127.9C211.429 129.967 212.529 131.8 213.929 133.4C215.329 134.933 216.996 136.133 218.929 137C220.862 137.867 222.962 138.3 225.229 138.3C227.296 138.3 229.829 137.733 232.829 136.6C235.896 135.4 238.696 133.9 241.229 132.1L254.329 148.4C251.729 150.133 248.662 151.7 245.129 153.1C241.662 154.5 238.029 155.6 234.229 156.4C230.496 157.2 226.962 157.6 223.629 157.6C218.162 157.6 213.096 156.7 208.429 154.9C203.829 153.033 199.796 150.467 196.329 147.2C192.929 143.933 190.296 140.067 188.429 135.6C186.562 131.067 185.629 126.167 185.629 120.9C185.629 115.633 186.596 110.8 188.529 106.4C190.462 101.933 193.196 98.0667 196.729 94.8C200.329 91.4667 204.529 88.9 209.329 87.1C214.129 85.3 219.396 84.4 225.129 84.4C228.796 84.4 232.462 84.8667 236.129 85.8C239.862 86.6667 243.396 87.9333 246.729 89.6C250.062 91.2 252.962 93.1333 255.429 95.4L242.329 111.3ZM234.429 119.1H254.329V148.4H234.429V119.1ZM252.957 85.9H312.257V103.5H276.157V112.1H308.957V129.7H276.157V138.4H313.157V156H252.957V85.9Z" fill="white"/>
</svg>
